<?xml version="1.0" encoding="UTF-8" standalone="no"?><!DOCTYPE svg PUBLIC "-//W3C//DTD SVG 1.1//EN" "http://www.w3.org/Graphics/SVG/1.1/DTD/svg11.dtd"><svg width="100%" height="100%" viewBox="0 0 80 80" version="1.1" xmlns="http://www.w3.org/2000/svg" xmlns:xlink="http://www.w3.org/1999/xlink" xml:space="preserve" style="fill-rule:evenodd;clip-rule:evenodd;stroke-linejoin:round;stroke-miterlimit:1.41421;"><g id="PHP-.--Smarty-.--PEAR"><path d="M41.799,1.126c-0.541,0.341 -0.848,0.844 -0.838,1.382l0.137,7.145c0.019,1.013 0.914,1.913 2.169,2.158c4.419,0.865 8.411,3.156 11.332,6.619c0.875,1.038 2.395,1.518 3.656,1.146l9.443,-2.786c0.752,-0.221 1.259,-0.736 1.389,-1.4c0.128,-0.656 -0.126,-1.389 -0.686,-2.008c-3.292,-3.633 -7.253,-6.613 -11.482,-8.741c-4.126,-2.077 -8.639,-3.408 -13.154,-3.92c-0.713,-0.081 -1.429,0.066 -1.966,0.405Z" style="fill:#4e9a06;fill-rule:nonzero;"/><path d="M69.797,20.014l-9.695,2.971c-1.295,0.397 -1.979,1.619 -1.64,2.984c0.093,0.372 0.198,0.812 0.274,1.245c0.825,4.67 -0.102,9.365 -2.872,13.473c-0.924,1.371 -0.751,3.43 0.462,4.985l10.45,13.388c0.957,1.225 2.24,2.014 3.501,2.141c1.264,0.127 2.354,-0.424 2.977,-1.494c6.046,-10.41 6.781,-22.116 3.271,-32.493c-0.564,-1.666 -1.269,-3.345 -2.087,-4.988c-0.401,-0.805 -1.145,-1.508 -2.037,-1.928c-0.883,-0.417 -1.832,-0.52 -2.604,-0.284Z" style="fill:#f0c040;fill-rule:nonzero;"/><path d="M47.97,47.433c-2.682,1.26 -5.684,1.936 -8.639,1.936c-2.955,0 -5.956,-0.676 -8.638,-1.936c-1.578,-0.74 -3.501,-0.134 -4.697,1.494l-10.368,14.137c-0.95,1.297 -1.485,2.967 -1.451,4.584c0.036,1.652 0.663,3.07 1.722,3.863c6.709,5.008 14.928,7.789 23.432,7.789c8.503,0 16.724,-2.781 23.432,-7.789c1.06,-0.793 1.686,-2.211 1.722,-3.863c0.035,-1.617 -0.5,-3.289 -1.451,-4.584l-10.368,-14.137c-1.195,-1.628 -3.118,-2.234 -4.696,-1.494Z" style="fill:#8892bf;fill-rule:nonzero;"/><path d="M25.65,30.443c0,-8.117 6.58,-14.697 14.696,-14.697c8.117,0 14.696,6.58 14.696,14.697c0,8.116 -6.579,14.695 -14.696,14.695c-8.116,0 -14.696,-6.579 -14.696,-14.695Z" style="fill:#949698;fill-rule:nonzero;"/><path d="M31.492,19.081l0.581,-0.483l0.193,0.193l-0.338,0.484l0.532,-0.048l0.193,-0.533l0.63,-0.483l0.493,-0.901c-1.191,0.597 -2.287,1.351 -3.267,2.236l0.983,0.068l0,-0.533Zm3.629,-1.935l0.146,0.387l1.113,-0.532l-0.968,0.968l0.58,0.193l1.162,-0.097l0.096,-0.532l0.532,-0.435l1.355,-1.016l0.242,-0.287c-1.092,0.071 -2.152,0.254 -3.166,0.551l0.021,0.075l-1.113,0.725Zm-5.515,21.87l0.532,-0.097l-0.436,-2.322l0.678,-1.356l-0.194,-0.87l-0.435,-0.194l-0.678,-1.451l-0.629,-0.387l-0.435,-0.339l-0.532,-0.774l-0.049,-1.016l-0.193,-0.968l-0.436,-0.628l-0.097,-0.629l-0.435,-0.485l-0.248,-0.294c-0.235,1.042 -0.369,2.123 -0.369,3.237c0,4.072 1.658,7.757 4.335,10.418l-0.428,-1.41l0.049,-0.435Zm25.376,-9.772l-0.555,-1.066l-0.774,-1.984l-0.339,-0.435l-0.871,-1.113l-0.338,0.048l-0.581,0.146l-0.581,-0.436l-0.339,0.242l-1.113,-1.113l-0.241,0.145l0.339,0.338l0.29,0.436l0.387,0.194l0,0.483l0.484,-0.048l0.29,-0.387l0.077,0.155l0.116,0.232l0.629,0.533l0.097,1.064l-0.629,0.678l-0.048,0.386l-0.484,0.387l-0.919,0.629l-0.533,-1.258l-0.386,-0.532l-0.436,-0.339l-0.29,-0.87l-0.484,-0.532l-0.968,-1.065l0.386,0.919l0.63,0.919l0.339,0.775l0.629,0.967l0.826,0.952l0.142,0.162l0.242,0.58l1.451,-0.58l-0.048,0.58l0.278,-0.013l-0.097,0.437l-0.423,0.109l-0.242,1.499l-0.775,0.871l0.097,0.775l-1.113,1.741l0.242,1.258l-0.338,1.5l-0.581,0.484l-1.016,0.773l-0.146,1.066l-0.628,0.338l-0.387,0.63l-0.679,0.627l-0.966,0.484l-0.968,0.145l-0.484,0.195l-0.483,-0.34l0.096,-0.289l-0.29,-0.582l-0.194,-0.531l-0.145,-0.919l-0.314,-0.073l0,-0.242l0.169,-0.121l-0.339,-0.678l0.387,-1.258l0.387,-0.194l-0.145,-0.967l-0.339,-0.629l-0.725,-0.919l-0.266,-0.036l0,-0.242l0.12,-0.158l0.339,-0.821l-0.339,-0.582l-0.048,-1.548l-0.339,0.193l-0.435,0l-0.435,-0.531l-0.968,0l-0.919,0.338l-0.387,-0.29l-0.871,0.049l-0.484,0.096l-1.113,-0.823l-0.097,-0.531l-0.774,-0.92l-0.194,-0.775l0.435,-1.015l0,-1.21l0.872,-1.258l1.403,-1.064l-0.145,-0.339l1.161,-0.871l0.871,0l0.774,-0.339l2.032,-0.048l-0.145,0.58l0.436,0.243l0.774,0.58l0.967,0.242l-0.048,-0.436l0.387,-0.338l0.484,0.29l1.016,0.339l0.532,-0.194l0.581,0.048l-0.387,-0.531l0.435,-0.291l-0.29,-0.29l-0.532,0l-0.484,0.048l-0.387,-0.145l-0.29,-0.194l-0.194,-0.289l-0.048,-0.339l-0.193,-0.097l-0.388,0.193l0.388,0.145l0.096,0.387l-0.29,0.242l-0.339,-0.145l-0.63,0.049l0,-0.243l0.388,-0.144l-0.145,-0.339l-0.581,-0.048l0.146,0.193l-0.194,0.338l-0.291,0.243l-0.338,-0.097l-0.242,-0.29l0.58,0l0.049,-0.194l-0.242,-0.242l-0.29,-0.194l-0.387,-0.242l-0.194,-0.386l-0.677,0.193l-0.484,0l-0.194,0.435l-0.483,0.194l-0.146,0.436l-0.58,0.241l-0.629,0l-0.581,0l-0.145,-0.289l0.048,-0.436l0.242,-0.291l0,-0.435l0.29,-0.146l1.259,0.146l0.096,-0.338l-0.532,-0.049l-0.532,-0.145l0.58,-0.388l0.823,-0.145l0.435,-0.29l0.339,-0.242l0.629,-0.193l0.145,-0.339l0.291,0.242l0.387,0.194l0.435,-0.146l0.387,-0.193l0.338,-0.435l-0.338,-0.098l-0.145,-0.29l0.145,-0.338l-0.387,-0.049l0,0.242l-0.726,0.145l0.387,0.049l0.387,0.339l-0.242,0.483l-0.483,-0.048l-0.339,-0.435l-0.387,0.193l-0.29,-0.242l0,-0.29l0.919,-0.484l0.533,-0.484l1.015,0.096l-0.338,-0.387l1.122,-0.179c6.123,1.429 10.767,6.677 11.287,13.1Z" style="fill:#d1d3d4;fill-rule:nonzero;"/></g></svg>